<svg id="Layer_1" data-name="Layer 1" xmlns="http://www.w3.org/2000/svg" viewBox="0 0 90.49 80"><title>am-logo</title><path d="M81.83,37.75H84.3L90,50.36H87.67L86,46.55H79.86l-1.72,3.81H75.89Zm3.59,7.44L83,39.62l-2.52,5.57h4.94Z" fill="#00254a"/><path d="M78.59,56.09a2.6,2.6,0,0,1-.34-1.22,2.49,2.49,0,0,1,1-2A4.33,4.33,0,0,1,82,52a3.94,3.94,0,0,1,2.56.75,2.26,2.26,0,0,1,.92,1.79,2.88,2.88,0,0,1-.95,2.13,9.08,9.08,0,0,1-1.86,1.23l2.87,2.74q0.26-.69.37-1a7.3,7.3,0,0,0,.21-1H88A7.73,7.73,0,0,1,87.31,61c-0.36.74-.54,1-0.54,0.89l2.75,2.68H87.07l-1.48-1.4A7.51,7.51,0,0,1,84,64.29a6.74,6.74,0,0,1-2.94.61,5.08,5.08,0,0,1-3.57-1.05,3.23,3.23,0,0,1-1.11-2.37,3,3,0,0,1,1.09-2.38,12.41,12.41,0,0,1,2.47-1.45,6.77,6.77,0,0,1-1.34-1.55m4.65,7a4.2,4.2,0,0,0,1.32-1L81,58.69a10.66,10.66,0,0,0-2,1.23,2,2,0,0,0-.7,1.57A1.69,1.69,0,0,0,79.25,63a3.77,3.77,0,0,0,2,.54,4.43,4.43,0,0,0,2-.43M83.09,56a1.74,1.74,0,0,0,.63-1.3,1.22,1.22,0,0,0-.46-1,1.84,1.84,0,0,0-1.25-.4,1.9,1.9,0,0,0-1.65.63,1.14,1.14,0,0,0-.24.71,1.64,1.64,0,0,0,.36,1A10.16,10.16,0,0,0,81.69,57a8.35,8.35,0,0,0,1.4-.93" fill="#00254a"/><path d="M75.4,67.28h3L83,77.94l4.52-10.66h3V79.89h-2V72.44c0-.26,0-0.68,0-1.28s0-1.23,0-1.91L84,79.89H81.87L77.33,69.25v0.38c0,0.31,0,.79,0,1.42s0,1.09,0,1.39v7.45h-2V67.28Z" fill="#00254a"/><polygon points="47.41 0 0 80 10.96 80 49.52 12.14 49.52 80 58.12 80 58.12 0 47.41 0" fill="#00254a"/><polygon points="46.24 23.14 37.59 38.34 37.59 80 46.24 80 46.24 23.14" fill="#3a84b6"/><polygon points="60.95 23.14 69.59 38.34 69.59 80 60.95 80 60.95 23.14" fill="#3a84b6"/></svg>